<svg xmlns="http://www.w3.org/2000/svg" viewBox="0 0 1400 900" width="1400" height="900" role="img" aria-label="invoice pipeline">
<defs>
 <pattern id="dots" width="26" height="26" patternUnits="userSpaceOnUse">
   <circle cx="1.5" cy="1.5" r="1.2" fill="#111" fill-opacity=".07"/></pattern>
 <filter id="sh" x="-40%" y="-40%" width="180%" height="180%">
   <feDropShadow dx="0" dy="3" stdDeviation="5" flood-color="#000" flood-opacity=".10"/></filter>
</defs>
<rect width="1400" height="900" fill="#FAFAF8"/><rect width="1400" height="900" fill="url(#dots)"/>
<text x="46" y="58" font-family="IBM Plex Sans,system-ui,sans-serif" font-size="21" fill="#111" fill-opacity=".78">Invoice → GL pipeline</text><text x="46" y="82" font-family="ui-monospace,monospace" font-size="11.5" fill="#111" fill-opacity=".38">n8n · self-hosted</text>
<g filter="url(#sh)"><rect x="46" y="150" width="196" height="62" rx="9" fill="#fff" stroke="#111" stroke-opacity=".10"/></g><rect x="46" y="150" width="4" height="62" rx="2" fill="#EA4B71"/><rect x="60" y="161" width="13" height="13" rx="3.5" fill="#EA4B71" fill-opacity=".9"/><text x="80" y="171" font-family="ui-monospace,monospace" font-size="9.5" fill="#111" fill-opacity=".45">trigger</text><text x="60" y="195" font-family="IBM Plex Sans,system-ui,sans-serif" font-size="12.5" fill="#111" fill-opacity=".82">Gmail / Drive</text><circle cx="228" cy="166" r="6" fill="#16a34a" fill-opacity=".16"/><path d="M225,166 l2.2,2.2 l4.2,-4.6" stroke="#16a34a" stroke-width="1.7" fill="none" stroke-linecap="round"/><path d="M242,181.0 C270,181.0 248,181.0 276,181.0" fill="none" stroke="#6366f1" stroke-opacity=".38" stroke-width="1.5"/><circle cx="272" cy="181.0" r="2.6" fill="#6366f1" fill-opacity=".45"/><g filter="url(#sh)"><rect x="276" y="150" width="196" height="62" rx="9" fill="#fff" stroke="#111" stroke-opacity=".10"/></g><rect x="276" y="150" width="4" height="62" rx="2" fill="#412991"/><rect x="290" y="161" width="13" height="13" rx="3.5" fill="#412991" fill-opacity=".9"/><text x="310" y="171" font-family="ui-monospace,monospace" font-size="9.5" fill="#111" fill-opacity=".45">extract</text><text x="290" y="195" font-family="IBM Plex Sans,system-ui,sans-serif" font-size="12.5" fill="#111" fill-opacity=".82">Claude Vision</text><circle cx="458" cy="166" r="6" fill="#16a34a" fill-opacity=".16"/><path d="M455,166 l2.2,2.2 l4.2,-4.6" stroke="#16a34a" stroke-width="1.7" fill="none" stroke-linecap="round"/><path d="M472,181.0 C500,181.0 478,181.0 506,181.0" fill="none" stroke="#6366f1" stroke-opacity=".38" stroke-width="1.5"/><circle cx="502" cy="181.0" r="2.6" fill="#6366f1" fill-opacity=".45"/><g filter="url(#sh)"><rect x="506" y="150" width="196" height="62" rx="9" fill="#fff" stroke="#111" stroke-opacity=".10"/></g><rect x="506" y="150" width="4" height="62" rx="2" fill="#4169E1"/><rect x="520" y="161" width="13" height="13" rx="3.5" fill="#4169E1" fill-opacity=".9"/><text x="540" y="171" font-family="ui-monospace,monospace" font-size="9.5" fill="#111" fill-opacity=".45">code</text><text x="520" y="195" font-family="IBM Plex Sans,system-ui,sans-serif" font-size="12.5" fill="#111" fill-opacity=".82">Validate PO</text><circle cx="688" cy="166" r="6" fill="#16a34a" fill-opacity=".16"/><path d="M685,166 l2.2,2.2 l4.2,-4.6" stroke="#16a34a" stroke-width="1.7" fill="none" stroke-linecap="round"/>
<path d="M702,181 C790.8,181 391.2,330 480,330" fill="none" stroke="#6366f1" stroke-opacity=".38" stroke-width="1.5"/><circle cx="476" cy="330" r="2.6" fill="#6366f1" fill-opacity=".45"/>
<path d="M702,181 C790.8,181 391.2,470 480,470" fill="none" stroke="#6366f1" stroke-opacity=".38" stroke-width="1.5"/><circle cx="476" cy="470" r="2.6" fill="#6366f1" fill-opacity=".45"/>
<g filter="url(#sh)"><rect x="480" y="299" width="196" height="62" rx="9" fill="#fff" stroke="#111" stroke-opacity=".10"/></g><rect x="480" y="299" width="4" height="62" rx="2" fill="#2CA01C"/><rect x="494" y="310" width="13" height="13" rx="3.5" fill="#2CA01C" fill-opacity=".9"/><text x="514" y="320" font-family="ui-monospace,monospace" font-size="9.5" fill="#111" fill-opacity=".45">confidence > 98%</text><text x="494" y="344" font-family="IBM Plex Sans,system-ui,sans-serif" font-size="12.5" fill="#111" fill-opacity=".82">Post to QuickBooks</text><circle cx="662" cy="315" r="6" fill="#16a34a" fill-opacity=".16"/><path d="M659,315 l2.2,2.2 l4.2,-4.6" stroke="#16a34a" stroke-width="1.7" fill="none" stroke-linecap="round"/>
<g filter="url(#sh)"><rect x="480" y="439" width="196" height="62" rx="9" fill="#fff" stroke="#111" stroke-opacity=".10"/></g><rect x="480" y="439" width="4" height="62" rx="2" fill="#c2620a"/><rect x="494" y="450" width="13" height="13" rx="3.5" fill="#c2620a" fill-opacity=".9"/><text x="514" y="460" font-family="ui-monospace,monospace" font-size="9.5" fill="#111" fill-opacity=".45">variance > 2%</text><text x="494" y="484" font-family="IBM Plex Sans,system-ui,sans-serif" font-size="12.5" fill="#111" fill-opacity=".82">Human review</text>
<path d="M676,330 C725.6,330 750.4,400 800,400" fill="none" stroke="#6366f1" stroke-opacity=".38" stroke-width="1.5"/><circle cx="796" cy="400" r="2.6" fill="#6366f1" fill-opacity=".45"/>
<path d="M676,470 C725.6,470 750.4,400 800,400" fill="none" stroke="#6366f1" stroke-opacity=".38" stroke-width="1.5"/><circle cx="796" cy="400" r="2.6" fill="#6366f1" fill-opacity=".45"/>
<g filter="url(#sh)"><rect x="800" y="369" width="196" height="62" rx="9" fill="#fff" stroke="#111" stroke-opacity=".10"/></g><rect x="800" y="369" width="4" height="62" rx="2" fill="#4169E1"/><rect x="814" y="380" width="13" height="13" rx="3.5" fill="#4169E1" fill-opacity=".9"/><text x="834" y="390" font-family="ui-monospace,monospace" font-size="9.5" fill="#111" fill-opacity=".45">drafted</text><text x="814" y="414" font-family="IBM Plex Sans,system-ui,sans-serif" font-size="12.5" fill="#111" fill-opacity=".82">GL entry</text><circle cx="982" cy="385" r="6" fill="#16a34a" fill-opacity=".16"/><path d="M979,385 l2.2,2.2 l4.2,-4.6" stroke="#16a34a" stroke-width="1.7" fill="none" stroke-linecap="round"/>
<path d="M996,400 C1045.6,400 1070.4,400 1120,400" fill="none" stroke="#6366f1" stroke-opacity=".38" stroke-width="1.5"/><circle cx="1116" cy="400" r="2.6" fill="#6366f1" fill-opacity=".45"/>
<g filter="url(#sh)"><rect x="1120" y="369" width="196" height="62" rx="9" fill="#fff" stroke="#111" stroke-opacity=".10"/></g><rect x="1120" y="369" width="4" height="62" rx="2" fill="#4A154B"/><rect x="1134" y="380" width="13" height="13" rx="3.5" fill="#4A154B" fill-opacity=".9"/><text x="1154" y="390" font-family="ui-monospace,monospace" font-size="9.5" fill="#111" fill-opacity=".45">notify</text><text x="1134" y="414" font-family="IBM Plex Sans,system-ui,sans-serif" font-size="12.5" fill="#111" fill-opacity=".82">Slack alert</text><circle cx="1302" cy="385" r="6" fill="#16a34a" fill-opacity=".16"/><path d="M1299,385 l2.2,2.2 l4.2,-4.6" stroke="#16a34a" stroke-width="1.7" fill="none" stroke-linecap="round"/>
</svg>
