<svg xmlns="http://www.w3.org/2000/svg" viewBox="0 0 1400 900" width="1400" height="900" role="img" aria-label="lead routing">
<defs>
 <pattern id="dots" width="26" height="26" patternUnits="userSpaceOnUse">
   <circle cx="1.5" cy="1.5" r="1.2" fill="#111" fill-opacity=".07"/></pattern>
 <filter id="sh" x="-40%" y="-40%" width="180%" height="180%">
   <feDropShadow dx="0" dy="3" stdDeviation="5" flood-color="#000" flood-opacity=".10"/></filter>
</defs>
<rect width="1400" height="900" fill="#FAFAF8"/><rect width="1400" height="900" fill="url(#dots)"/>
<text x="46" y="58" font-family="IBM Plex Sans,system-ui,sans-serif" font-size="21" fill="#111" fill-opacity=".78">Lead routing & enrichment</text><text x="46" y="82" font-family="ui-monospace,monospace" font-size="11.5" fill="#111" fill-opacity=".38">zapier · paths</text>
<g filter="url(#sh)"><rect x="46" y="150" width="196" height="62" rx="9" fill="#fff" stroke="#111" stroke-opacity=".10"/></g><rect x="46" y="150" width="4" height="62" rx="2" fill="#EA4B71"/><rect x="60" y="161" width="13" height="13" rx="3.5" fill="#EA4B71" fill-opacity=".9"/><text x="80" y="171" font-family="ui-monospace,monospace" font-size="9.5" fill="#111" fill-opacity=".45">webhook</text><text x="60" y="195" font-family="IBM Plex Sans,system-ui,sans-serif" font-size="12.5" fill="#111" fill-opacity=".82">Form catch</text><circle cx="228" cy="166" r="6" fill="#16a34a" fill-opacity=".16"/><path d="M225,166 l2.2,2.2 l4.2,-4.6" stroke="#16a34a" stroke-width="1.7" fill="none" stroke-linecap="round"/><path d="M242,181.0 C270,181.0 248,181.0 276,181.0" fill="none" stroke="#6366f1" stroke-opacity=".38" stroke-width="1.5"/><circle cx="272" cy="181.0" r="2.6" fill="#6366f1" fill-opacity=".45"/><g filter="url(#sh)"><rect x="276" y="150" width="196" height="62" rx="9" fill="#fff" stroke="#111" stroke-opacity=".10"/></g><rect x="276" y="150" width="4" height="62" rx="2" fill="#412991"/><rect x="290" y="161" width="13" height="13" rx="3.5" fill="#412991" fill-opacity=".9"/><text x="310" y="171" font-family="ui-monospace,monospace" font-size="9.5" fill="#111" fill-opacity=".45">formatter</text><text x="290" y="195" font-family="IBM Plex Sans,system-ui,sans-serif" font-size="12.5" fill="#111" fill-opacity=".82">Normalise</text><circle cx="458" cy="166" r="6" fill="#16a34a" fill-opacity=".16"/><path d="M455,166 l2.2,2.2 l4.2,-4.6" stroke="#16a34a" stroke-width="1.7" fill="none" stroke-linecap="round"/><path d="M472,181.0 C500,181.0 478,181.0 506,181.0" fill="none" stroke="#6366f1" stroke-opacity=".38" stroke-width="1.5"/><circle cx="502" cy="181.0" r="2.6" fill="#6366f1" fill-opacity=".45"/><g filter="url(#sh)"><rect x="506" y="150" width="196" height="62" rx="9" fill="#fff" stroke="#111" stroke-opacity=".10"/></g><rect x="506" y="150" width="4" height="62" rx="2" fill="#4169E1"/><rect x="520" y="161" width="13" height="13" rx="3.5" fill="#4169E1" fill-opacity=".9"/><text x="540" y="171" font-family="ui-monospace,monospace" font-size="9.5" fill="#111" fill-opacity=".45">enrich</text><text x="520" y="195" font-family="IBM Plex Sans,system-ui,sans-serif" font-size="12.5" fill="#111" fill-opacity=".82">Clearbit</text><circle cx="688" cy="166" r="6" fill="#16a34a" fill-opacity=".16"/><path d="M685,166 l2.2,2.2 l4.2,-4.6" stroke="#16a34a" stroke-width="1.7" fill="none" stroke-linecap="round"/><path d="M702,181.0 C730,181.0 708,181.0 736,181.0" fill="none" stroke="#6366f1" stroke-opacity=".38" stroke-width="1.5"/><circle cx="732" cy="181.0" r="2.6" fill="#6366f1" fill-opacity=".45"/><g filter="url(#sh)"><rect x="736" y="150" width="196" height="62" rx="9" fill="#fff" stroke="#111" stroke-opacity=".10"/></g><rect x="736" y="150" width="4" height="62" rx="2" fill="#16a34a"/><rect x="750" y="161" width="13" height="13" rx="3.5" fill="#16a34a" fill-opacity=".9"/><text x="770" y="171" font-family="ui-monospace,monospace" font-size="9.5" fill="#111" fill-opacity=".45">ai</text><text x="750" y="195" font-family="IBM Plex Sans,system-ui,sans-serif" font-size="12.5" fill="#111" fill-opacity=".82">GPT-4o score</text><circle cx="918" cy="166" r="6" fill="#16a34a" fill-opacity=".16"/><path d="M915,166 l2.2,2.2 l4.2,-4.6" stroke="#16a34a" stroke-width="1.7" fill="none" stroke-linecap="round"/>
<path d="M834.0,212 C975.6,212 338.4,361.0 480,361.0" fill="none" stroke="#6366f1" stroke-opacity=".38" stroke-width="1.5"/><circle cx="476" cy="361.0" r="2.6" fill="#6366f1" fill-opacity=".45"/>
<g filter="url(#sh)"><rect x="480" y="330" width="196" height="62" rx="9" fill="#fff" stroke="#111" stroke-opacity=".10"/></g><rect x="480" y="330" width="4" height="62" rx="2" fill="#FF7A59"/><rect x="494" y="341" width="13" height="13" rx="3.5" fill="#FF7A59" fill-opacity=".9"/><text x="514" y="351" font-family="ui-monospace,monospace" font-size="9.5" fill="#111" fill-opacity=".45">path</text><text x="494" y="375" font-family="IBM Plex Sans,system-ui,sans-serif" font-size="12.5" fill="#111" fill-opacity=".82">Enterprise rep</text><circle cx="662" cy="346" r="6" fill="#16a34a" fill-opacity=".16"/><path d="M659,346 l2.2,2.2 l4.2,-4.6" stroke="#16a34a" stroke-width="1.7" fill="none" stroke-linecap="round"/>
<path d="M676,361.0 C733.6,361.0 762.4,501.0 820,501.0" fill="none" stroke="#6366f1" stroke-opacity=".38" stroke-width="1.5"/><circle cx="816" cy="501.0" r="2.6" fill="#6366f1" fill-opacity=".45"/>
<path d="M834.0,212 C975.6,212 338.4,501.0 480,501.0" fill="none" stroke="#6366f1" stroke-opacity=".38" stroke-width="1.5"/><circle cx="476" cy="501.0" r="2.6" fill="#6366f1" fill-opacity=".45"/>
<g filter="url(#sh)"><rect x="480" y="470" width="196" height="62" rx="9" fill="#fff" stroke="#111" stroke-opacity=".10"/></g><rect x="480" y="470" width="4" height="62" rx="2" fill="#00A1E0"/><rect x="494" y="481" width="13" height="13" rx="3.5" fill="#00A1E0" fill-opacity=".9"/><text x="514" y="491" font-family="ui-monospace,monospace" font-size="9.5" fill="#111" fill-opacity=".45">path</text><text x="494" y="515" font-family="IBM Plex Sans,system-ui,sans-serif" font-size="12.5" fill="#111" fill-opacity=".82">Round robin</text><circle cx="662" cy="486" r="6" fill="#16a34a" fill-opacity=".16"/><path d="M659,486 l2.2,2.2 l4.2,-4.6" stroke="#16a34a" stroke-width="1.7" fill="none" stroke-linecap="round"/>
<path d="M676,501.0 C733.6,501.0 762.4,501.0 820,501.0" fill="none" stroke="#6366f1" stroke-opacity=".38" stroke-width="1.5"/><circle cx="816" cy="501.0" r="2.6" fill="#6366f1" fill-opacity=".45"/>
<path d="M834.0,212 C975.6,212 338.4,641.0 480,641.0" fill="none" stroke="#6366f1" stroke-opacity=".38" stroke-width="1.5"/><circle cx="476" cy="641.0" r="2.6" fill="#6366f1" fill-opacity=".45"/>
<g filter="url(#sh)"><rect x="480" y="610" width="196" height="62" rx="9" fill="#fff" stroke="#111" stroke-opacity=".10"/></g><rect x="480" y="610" width="4" height="62" rx="2" fill="#6b7280"/><rect x="494" y="621" width="13" height="13" rx="3.5" fill="#6b7280" fill-opacity=".9"/><text x="514" y="631" font-family="ui-monospace,monospace" font-size="9.5" fill="#111" fill-opacity=".45">path</text><text x="494" y="655" font-family="IBM Plex Sans,system-ui,sans-serif" font-size="12.5" fill="#111" fill-opacity=".82">Nurture</text><circle cx="662" cy="626" r="6" fill="#16a34a" fill-opacity=".16"/><path d="M659,626 l2.2,2.2 l4.2,-4.6" stroke="#16a34a" stroke-width="1.7" fill="none" stroke-linecap="round"/>
<path d="M676,641.0 C733.6,641.0 762.4,501.0 820,501.0" fill="none" stroke="#6366f1" stroke-opacity=".38" stroke-width="1.5"/><circle cx="816" cy="501.0" r="2.6" fill="#6366f1" fill-opacity=".45"/>
<g filter="url(#sh)"><rect x="820" y="470" width="196" height="62" rx="9" fill="#fff" stroke="#111" stroke-opacity=".10"/></g><rect x="820" y="470" width="4" height="62" rx="2" fill="#FF7A59"/><rect x="834" y="481" width="13" height="13" rx="3.5" fill="#FF7A59" fill-opacity=".9"/><text x="854" y="491" font-family="ui-monospace,monospace" font-size="9.5" fill="#111" fill-opacity=".45">keyed on email</text><text x="834" y="515" font-family="IBM Plex Sans,system-ui,sans-serif" font-size="12.5" fill="#111" fill-opacity=".82">HubSpot upsert</text><circle cx="1002" cy="486" r="6" fill="#16a34a" fill-opacity=".16"/><path d="M999,486 l2.2,2.2 l4.2,-4.6" stroke="#16a34a" stroke-width="1.7" fill="none" stroke-linecap="round"/>
<path d="M1016,501 C1065.6,501 1090.4,501 1140,501" fill="none" stroke="#6366f1" stroke-opacity=".38" stroke-width="1.5"/><circle cx="1136" cy="501" r="2.6" fill="#6366f1" fill-opacity=".45"/>
<g filter="url(#sh)"><rect x="1140" y="470" width="196" height="62" rx="9" fill="#fff" stroke="#111" stroke-opacity=".10"/></g><rect x="1140" y="470" width="4" height="62" rx="2" fill="#4A154B"/><rect x="1154" y="481" width="13" height="13" rx="3.5" fill="#4A154B" fill-opacity=".9"/><text x="1174" y="491" font-family="ui-monospace,monospace" font-size="9.5" fill="#111" fill-opacity=".45">owning rep</text><text x="1154" y="515" font-family="IBM Plex Sans,system-ui,sans-serif" font-size="12.5" fill="#111" fill-opacity=".82">Slack brief</text><circle cx="1322" cy="486" r="6" fill="#16a34a" fill-opacity=".16"/><path d="M1319,486 l2.2,2.2 l4.2,-4.6" stroke="#16a34a" stroke-width="1.7" fill="none" stroke-linecap="round"/>
</svg>
