<svg xmlns="http://www.w3.org/2000/svg" viewBox="0 0 1400 900" width="1400" height="900" role="img" aria-label="client onboarding">
<defs>
 <pattern id="dots" width="26" height="26" patternUnits="userSpaceOnUse">
   <circle cx="1.5" cy="1.5" r="1.2" fill="#111" fill-opacity=".07"/></pattern>
 <filter id="sh" x="-40%" y="-40%" width="180%" height="180%">
   <feDropShadow dx="0" dy="3" stdDeviation="5" flood-color="#000" flood-opacity=".10"/></filter>
</defs>
<rect width="1400" height="900" fill="#FAFAF8"/><rect width="1400" height="900" fill="url(#dots)"/>
<text x="46" y="58" font-family="IBM Plex Sans,system-ui,sans-serif" font-size="21" fill="#111" fill-opacity=".78">Zero-touch onboarding</text><text x="46" y="82" font-family="ui-monospace,monospace" font-size="11.5" fill="#111" fill-opacity=".38">n8n · google workspace</text>
<g filter="url(#sh)"><rect x="46" y="150" width="196" height="62" rx="9" fill="#fff" stroke="#111" stroke-opacity=".10"/></g><rect x="46" y="150" width="4" height="62" rx="2" fill="#EA4B71"/><rect x="60" y="161" width="13" height="13" rx="3.5" fill="#EA4B71" fill-opacity=".9"/><text x="80" y="171" font-family="ui-monospace,monospace" font-size="9.5" fill="#111" fill-opacity=".45">webhook</text><text x="60" y="195" font-family="IBM Plex Sans,system-ui,sans-serif" font-size="12.5" fill="#111" fill-opacity=".82">Intake form</text><circle cx="228" cy="166" r="6" fill="#16a34a" fill-opacity=".16"/><path d="M225,166 l2.2,2.2 l4.2,-4.6" stroke="#16a34a" stroke-width="1.7" fill="none" stroke-linecap="round"/><path d="M242,181.0 C270,181.0 248,181.0 276,181.0" fill="none" stroke="#6366f1" stroke-opacity=".38" stroke-width="1.5"/><circle cx="272" cy="181.0" r="2.6" fill="#6366f1" fill-opacity=".45"/><g filter="url(#sh)"><rect x="276" y="150" width="196" height="62" rx="9" fill="#fff" stroke="#111" stroke-opacity=".10"/></g><rect x="276" y="150" width="4" height="62" rx="2" fill="#412991"/><rect x="290" y="161" width="13" height="13" rx="3.5" fill="#412991" fill-opacity=".9"/><text x="310" y="171" font-family="ui-monospace,monospace" font-size="9.5" fill="#111" fill-opacity=".45">docs</text><text x="290" y="195" font-family="IBM Plex Sans,system-ui,sans-serif" font-size="12.5" fill="#111" fill-opacity=".82">Generate agreement</text><circle cx="458" cy="166" r="6" fill="#16a34a" fill-opacity=".16"/><path d="M455,166 l2.2,2.2 l4.2,-4.6" stroke="#16a34a" stroke-width="1.7" fill="none" stroke-linecap="round"/><path d="M472,181.0 C500,181.0 478,181.0 506,181.0" fill="none" stroke="#6366f1" stroke-opacity=".38" stroke-width="1.5"/><circle cx="502" cy="181.0" r="2.6" fill="#6366f1" fill-opacity=".45"/><g filter="url(#sh)"><rect x="506" y="150" width="196" height="62" rx="9" fill="#fff" stroke="#111" stroke-opacity=".10"/></g><rect x="506" y="150" width="4" height="62" rx="2" fill="#4169E1"/><rect x="520" y="161" width="13" height="13" rx="3.5" fill="#4169E1" fill-opacity=".9"/><text x="540" y="171" font-family="ui-monospace,monospace" font-size="9.5" fill="#111" fill-opacity=".45">drive</text><text x="520" y="195" font-family="IBM Plex Sans,system-ui,sans-serif" font-size="12.5" fill="#111" fill-opacity=".82">Provision folders</text><circle cx="688" cy="166" r="6" fill="#16a34a" fill-opacity=".16"/><path d="M685,166 l2.2,2.2 l4.2,-4.6" stroke="#16a34a" stroke-width="1.7" fill="none" stroke-linecap="round"/>
<path d="M702,181 C790.8,181 391.2,340 480,340" fill="none" stroke="#6366f1" stroke-opacity=".38" stroke-width="1.5"/><circle cx="476" cy="340" r="2.6" fill="#6366f1" fill-opacity=".45"/>
<g filter="url(#sh)"><rect x="480" y="309" width="196" height="62" rx="9" fill="#fff" stroke="#111" stroke-opacity=".10"/></g><rect x="480" y="309" width="4" height="62" rx="2" fill="#18BFFF"/><rect x="494" y="320" width="13" height="13" rx="3.5" fill="#18BFFF" fill-opacity=".9"/><text x="514" y="330" font-family="ui-monospace,monospace" font-size="9.5" fill="#111" fill-opacity=".45">upsert on email</text><text x="494" y="354" font-family="IBM Plex Sans,system-ui,sans-serif" font-size="12.5" fill="#111" fill-opacity=".82">Airtable record</text><circle cx="662" cy="325" r="6" fill="#16a34a" fill-opacity=".16"/><path d="M659,325 l2.2,2.2 l4.2,-4.6" stroke="#16a34a" stroke-width="1.7" fill="none" stroke-linecap="round"/>
<path d="M676,340 C725.6,340 750.4,340 800,340" fill="none" stroke="#6366f1" stroke-opacity=".38" stroke-width="1.5"/><circle cx="796" cy="340" r="2.6" fill="#6366f1" fill-opacity=".45"/>
<g filter="url(#sh)"><rect x="800" y="309" width="196" height="62" rx="9" fill="#fff" stroke="#111" stroke-opacity=".10"/></g><rect x="800" y="309" width="4" height="62" rx="2" fill="#26A5E4"/><rect x="814" y="320" width="13" height="13" rx="3.5" fill="#26A5E4" fill-opacity=".9"/><text x="834" y="330" font-family="ui-monospace,monospace" font-size="9.5" fill="#111" fill-opacity=".45">notify team</text><text x="814" y="354" font-family="IBM Plex Sans,system-ui,sans-serif" font-size="12.5" fill="#111" fill-opacity=".82">Telegram brief</text><circle cx="982" cy="325" r="6" fill="#16a34a" fill-opacity=".16"/><path d="M979,325 l2.2,2.2 l4.2,-4.6" stroke="#16a34a" stroke-width="1.7" fill="none" stroke-linecap="round"/>
<path d="M676,340 C725.6,340 750.4,500 800,500" fill="none" stroke="#6366f1" stroke-opacity=".38" stroke-width="1.5"/><circle cx="796" cy="500" r="2.6" fill="#6366f1" fill-opacity=".45"/>
<g filter="url(#sh)"><rect x="800" y="469" width="196" height="62" rx="9" fill="#fff" stroke="#111" stroke-opacity=".10"/></g><rect x="800" y="469" width="4" height="62" rx="2" fill="#c2620a"/><rect x="814" y="480" width="13" height="13" rx="3.5" fill="#c2620a" fill-opacity=".9"/><text x="834" y="490" font-family="ui-monospace,monospace" font-size="9.5" fill="#111" fill-opacity=".45">partial chain</text><text x="814" y="514" font-family="IBM Plex Sans,system-ui,sans-serif" font-size="12.5" fill="#111" fill-opacity=".82">Failure alert</text>
</svg>
