<svg xmlns="http://www.w3.org/2000/svg" viewBox="0 0 1200 760" width="1200" height="760" role="img" aria-label="system sync">
<defs>
  <linearGradient id="iri" x1="0" y1="0" x2="1" y2="1">
    <stop offset="0%" stop-color="#c026a3" stop-opacity=".55"/>
    <stop offset="35%" stop-color="#6d28d9" stop-opacity=".5"/>
    <stop offset="70%" stop-color="#0e7490" stop-opacity=".5"/>
    <stop offset="100%" stop-color="#c2620a" stop-opacity=".5"/>
  </linearGradient>
  <linearGradient id="glow" x1="0" y1="0" x2="0" y2="1">
    <stop offset="0%" stop-color="#ffffff" stop-opacity=".9"/>
    <stop offset="100%" stop-color="#ffffff" stop-opacity=".35"/>
  </linearGradient>
  <filter id="soft" x="-30%" y="-30%" width="160%" height="160%">
    <feDropShadow dx="0" dy="10" stdDeviation="16" flood-color="#000" flood-opacity=".10"/>
  </filter>
  <pattern id="grid" width="40" height="40" patternUnits="userSpaceOnUse">
    <path d="M40 0H0V40" fill="none" stroke="#111" stroke-opacity=".05" stroke-width="1"/>
  </pattern>
</defs>
<rect width="1200" height="760" fill="#F5F4F0"/>
<rect width="1200" height="760" fill="url(#grid)"/>
<text x="60" y="80" font-family="IBM Plex Sans, system-ui, sans-serif" font-size="30" font-weight="300" fill="#111" fill-opacity=".9">System sync</text><text x="60" y="112" font-family="ui-monospace, monospace" font-size="13" fill="#111" fill-opacity=".38">one source of truth, many followers</text>
<path d="M390,218 C480.0,218 500.0,358 590,358" fill="none" stroke="#111" stroke-opacity=".22" stroke-width="1.6"/>
<path d="M390,498 C480.0,498 500.0,358 590,358" fill="none" stroke="#111" stroke-opacity=".22" stroke-width="1.6"/>
<path d="M790,218 C884.5,218 905.5,358 1000,358" fill="none" stroke="#111" stroke-opacity=".22" stroke-width="1.6"/>
<path d="M790,498 C884.5,498 905.5,358 1000,358" fill="none" stroke="#111" stroke-opacity=".22" stroke-width="1.6"/>
<path d="M790,206 C875.5,206 514.5,320 600,320" fill="none" stroke="#111" stroke-opacity=".22" stroke-width="1.6"/>
<g filter="url(#soft)"><rect x="505" y="282" width="190" height="76" rx="14" fill="url(#iri)" stroke="#111" stroke-opacity=".22"/></g><circle cx="505" cy="320.0" r="4" fill="#111" fill-opacity=".18"/><circle cx="695" cy="320.0" r="4" fill="#111" fill-opacity=".18"/><text x="523" y="314" font-family="IBM Plex Sans, system-ui, sans-serif" font-size="15" fill="#111" fill-opacity=".82">Postgres</text><text x="523" y="336" font-family="ui-monospace, monospace" font-size="11" fill="#111" fill-opacity=".38">source of truth</text>
<g filter="url(#soft)"><rect x="200" y="180" width="190" height="76" rx="14" fill="url(#glow)" stroke="#111" stroke-opacity=".12"/></g><circle cx="200" cy="218.0" r="4" fill="#111" fill-opacity=".18"/><circle cx="390" cy="218.0" r="4" fill="#111" fill-opacity=".18"/><text x="218" y="212" font-family="IBM Plex Sans, system-ui, sans-serif" font-size="15" fill="#111" fill-opacity=".82">Airtable</text><text x="218" y="234" font-family="ui-monospace, monospace" font-size="11" fill="#111" fill-opacity=".38">follower</text>
<g filter="url(#soft)"><rect x="200" y="460" width="190" height="76" rx="14" fill="url(#glow)" stroke="#111" stroke-opacity=".12"/></g><circle cx="200" cy="498.0" r="4" fill="#111" fill-opacity=".18"/><circle cx="390" cy="498.0" r="4" fill="#111" fill-opacity=".18"/><text x="218" y="492" font-family="IBM Plex Sans, system-ui, sans-serif" font-size="15" fill="#111" fill-opacity=".82">Sheets</text><text x="218" y="514" font-family="ui-monospace, monospace" font-size="11" fill="#111" fill-opacity=".38">follower</text>
<g filter="url(#soft)"><rect x="810" y="180" width="190" height="76" rx="14" fill="url(#glow)" stroke="#111" stroke-opacity=".12"/></g><circle cx="810" cy="218.0" r="4" fill="#111" fill-opacity=".18"/><circle cx="1000" cy="218.0" r="4" fill="#111" fill-opacity=".18"/><text x="828" y="212" font-family="IBM Plex Sans, system-ui, sans-serif" font-size="15" fill="#111" fill-opacity=".82">Notion</text><text x="828" y="234" font-family="ui-monospace, monospace" font-size="11" fill="#111" fill-opacity=".38">follower</text>
<g filter="url(#soft)"><rect x="810" y="460" width="190" height="76" rx="14" fill="url(#glow)" stroke="#111" stroke-opacity=".12"/></g><circle cx="810" cy="498.0" r="4" fill="#111" fill-opacity=".18"/><circle cx="1000" cy="498.0" r="4" fill="#111" fill-opacity=".18"/><text x="828" y="492" font-family="IBM Plex Sans, system-ui, sans-serif" font-size="15" fill="#111" fill-opacity=".82">Slack</text><text x="828" y="514" font-family="ui-monospace, monospace" font-size="11" fill="#111" fill-opacity=".38">follower</text>
<g filter="url(#soft)"><rect x="505" y="130" width="190" height="76" rx="14" fill="url(#glow)" stroke="#111" stroke-opacity=".12"/></g><circle cx="505" cy="168.0" r="4" fill="#111" fill-opacity=".18"/><circle cx="695" cy="168.0" r="4" fill="#111" fill-opacity=".18"/><text x="523" y="162" font-family="IBM Plex Sans, system-ui, sans-serif" font-size="15" fill="#111" fill-opacity=".82">CRM</text><text x="523" y="184" font-family="ui-monospace, monospace" font-size="11" fill="#111" fill-opacity=".38">follower</text>
<rect x="60" y="620" width="152" height="28" rx="14" fill="#111" fill-opacity=".05" stroke="#111" stroke-opacity=".10"/><text x="73" y="639" font-family="ui-monospace, monospace" font-size="11" fill="#111" fill-opacity=".55">idempotent writes</text>
<rect x="232" y="620" width="130" height="28" rx="14" fill="#111" fill-opacity=".05" stroke="#111" stroke-opacity=".10"/><text x="245" y="639" font-family="ui-monospace, monospace" font-size="11" fill="#111" fill-opacity=".55">keyed matching</text>
<rect x="380" y="620" width="152" height="28" rx="14" fill="#111" fill-opacity=".05" stroke="#111" stroke-opacity=".10"/><text x="393" y="639" font-family="ui-monospace, monospace" font-size="11" fill="#111" fill-opacity=".55">nightly reconcile</text>
</svg>
