<svg xmlns="http://www.w3.org/2000/svg" viewBox="0 0 1200 750" width="1200" height="750" role="img" aria-label="AI Agents">
<defs><pattern id="d" width="24" height="24" patternUnits="userSpaceOnUse"><circle cx="1.4" cy="1.4" r="1.1" fill="#111" fill-opacity=".07"/></pattern></defs>
<rect width="1200" height="750" fill="#FAFAF8"/><rect width="1200" height="750" fill="url(#d)"/>
<text x="72" y="120" font-family="ui-monospace,monospace" font-size="15" letter-spacing="3" fill="#111" fill-opacity=".35">AI AGENTS</text>
<path d="M290,239 C350,239 350,329 350,329" fill="none" stroke="#6366f1" stroke-opacity=".30" stroke-width="1.5"/><path d="M520,329 C580,329 580,419 580,419" fill="none" stroke="#6366f1" stroke-opacity=".30" stroke-width="1.5"/><path d="M750,419 C810,419 810,239 810,239" fill="none" stroke="#6366f1" stroke-opacity=".30" stroke-width="1.5"/><path d="M980,239 C1040,239 1040,329 1040,329" fill="none" stroke="#6366f1" stroke-opacity=".30" stroke-width="1.5"/><rect x="120" y="210" width="170" height="58" rx="9" fill="#fff" stroke="#111" stroke-opacity=".10"/><rect x="120" y="210" width="4" height="58" rx="2" fill="hsl(190 55% 52%)"/><rect x="350" y="300" width="170" height="58" rx="9" fill="#fff" stroke="#111" stroke-opacity=".10"/><rect x="350" y="300" width="4" height="58" rx="2" fill="hsl(230 55% 52%)"/><rect x="580" y="390" width="170" height="58" rx="9" fill="#fff" stroke="#111" stroke-opacity=".10"/><rect x="580" y="390" width="4" height="58" rx="2" fill="hsl(270 55% 52%)"/><rect x="810" y="210" width="170" height="58" rx="9" fill="#fff" stroke="#111" stroke-opacity=".10"/><rect x="810" y="210" width="4" height="58" rx="2" fill="hsl(310 55% 52%)"/><rect x="1040" y="300" width="170" height="58" rx="9" fill="#fff" stroke="#111" stroke-opacity=".10"/><rect x="1040" y="300" width="4" height="58" rx="2" fill="hsl(350 55% 52%)"/>
</svg>
